<?xml version="1.0" encoding="utf-8"?>
<!-- Generator: Adobe Illustrator 15.0.2, SVG Export Plug-In . SVG Version: 6.00 Build 0)  -->
<!DOCTYPE svg PUBLIC "-//W3C//DTD SVG 1.1//EN" "http://www.w3.org/Graphics/SVG/1.1/DTD/svg11.dtd">
<svg version="1.1" id="Layer_1" xmlns="http://www.w3.org/2000/svg" xmlns:xlink="http://www.w3.org/1999/xlink" x="0px" y="0px"
	 width="21px" height="13px" viewBox="0 0 21 13" enable-background="new 0 0 21 13" xml:space="preserve">
<g fill="#E6AB49">
	<polygon points="19.87,0.04 19.69,0 1.31,0 1.2,0.02 10.5,8.23 	"/>
	<path d="M20.91,0.86l-6.62,5.79l6.54,5.66c0.1-0.18,0.17-0.39,0.17-0.61V1.3C21,1.15,20.96,1,20.91,0.86z"/>
	<path d="M0.1,0.8C0.04,0.95,0,1.12,0,1.3v10.4c0,0.19,0.05,0.37,0.12,0.53l6.59-5.6L0.1,0.8z"/>
	<polygon points="10.5,9.97 7.7,7.5 1.24,12.99 1.31,13 19.63,13 13.3,7.52 	"/>
</g>
</svg>
