<?xml version="1.0" encoding="utf-8"?>
<!-- Generator: Adobe Illustrator 15.0.2, SVG Export Plug-In . SVG Version: 6.00 Build 0)  -->
<!DOCTYPE svg PUBLIC "-//W3C//DTD SVG 1.1//EN" "http://www.w3.org/Graphics/SVG/1.1/DTD/svg11.dtd">
<svg version="1.1" id="Layer_1" xmlns="http://www.w3.org/2000/svg" xmlns:xlink="http://www.w3.org/1999/xlink" x="0px" y="0px"
	 width="20.87px" height="16px" viewBox="0 0 20.87 16" enable-background="new 0 0 20.87 16" xml:space="preserve">
<path fill="#D9D4C2" d="M20.87,1.89c-0.77,0.33-1.59,0.54-2.46,0.64c0.89-0.5,1.57-1.29,1.89-2.23c-0.83,0.46-1.75,0.79-2.72,0.98
	C16.8,0.49,15.68,0,14.45,0c-2.36,0-4.28,1.81-4.28,4.04c0,0.32,0.04,0.62,0.11,0.92C6.72,4.79,3.57,3.18,1.45,0.74
	c-0.37,0.6-0.58,1.29-0.58,2.03c0,1.4,0.76,1.64,1.91,2.36c-0.7-0.02-1.36,0.8-1.94,0.5v0.05c0,1.95,1.47,3.59,3.43,3.96
	C3.91,9.73,3.54,9.78,3.15,9.78c-0.28,0-0.55-0.03-0.81-0.07c0.54,1.6,2.13,2.77,4,2.8c-1.47,1.09-3.31,1.73-5.32,1.73
	c-0.34,0-0.69-0.02-1.02-0.05C1.89,15.33,4.15,16,6.56,16c7.88,0,12.19-6.16,12.19-11.49l-0.01-0.53C19.57,3.42,20.3,2.7,20.87,1.89
	z"/>
</svg>
